<svg version="1.1" xmlns="http://www.w3.org/2000/svg" xmlns:xlink="http://www.w3.org/1999/xlink" width="205.87047" height="42.247" viewBox="0,0,205.87047,42.247"><g transform="translate(-137.06477,-158.8765)"><g data-paper-data="{&quot;isPaintingLayer&quot;:true}" fill="#21ff86" fill-rule="evenodd" stroke="none" stroke-width="1" stroke-linecap="butt" stroke-linejoin="miter" stroke-miterlimit="10" stroke-dasharray="" stroke-dashoffset="0" style="mix-blend-mode: normal"><path d="M147.88015,159.3554c4.84362,-1.3407 11.20347,0.19986 15.6519,3.79224c2.07899,1.67927 2.06541,1.78119 -0.68337,5.14993c-2.72104,3.33477 -2.72613,3.33817 -3.95586,2.6412c-5.01914,-2.8439 -7.86926,-3.21248 -9.81237,-1.26936c-1.99237,1.99237 -0.48974,3.68297 5.01518,5.64306c8.00401,2.84956 10.75053,5.07009 11.88967,9.61534c3.56067,14.20702 -15.79514,21.97664 -27.49118,11.03531c-2.01785,-1.88706 -2.00086,-2.00822 0.70432,-5.07519c3.33137,-3.77695 2.92995,-3.59068 4.86967,-2.263c5.32148,3.64277 11.1644,3.83357 12.1937,0.39802c0.6109,-2.03993 -0.50673,-2.97128 -6.51667,-5.43358c-8.89121,-3.6422 -11.69094,-6.92771 -11.28103,-13.23943c0.36348,-5.5955 3.6105,-9.38718 9.41605,-10.99455M171.88313,163.04969c0.33291,-0.33291 8.70154,-0.37877 9.22185,-0.05039c0.27686,0.17495 0.35159,0.97948 0.40934,4.40371l0.07021,4.19026h2.42719c3.12075,0 2.96959,-0.19759 2.96959,3.86867c0,4.38729 0.24346,4.04192 -2.84956,4.04192h-2.57496v10.0145c0,7.66487 -0.06624,10.10509 -0.28309,10.40176c-0.25365,0.34707 -0.75981,0.38047 -4.91609,0.32555l-4.63244,-0.06115l-0.05888,-10.34061l-0.05888,-10.34005h-2.58912c-3.18756,0 -3.05678,0.16929 -3.05678,-3.9553c0,-4.12572 -0.13135,-3.9553 3.05904,-3.9553h2.59138v-4.13647c0,-2.9158 0.07983,-4.2163 0.2712,-4.4071M202.23745,171.29319c2.17751,-0.66809 4.53506,-0.32329 6.15885,0.89965c0.99534,0.74962 0.95684,1.21275 -0.39462,4.70944c-1.4194,3.67334 -1.42166,3.67561 -3.11962,3.32514c-3.30589,-0.68281 -5.35828,0.09342 -6.75107,2.55345l-0.63978,1.13008l-0.05775,7.68469c-0.03114,4.22649 -0.10984,7.91342 -0.17382,8.19311c-0.13701,0.59958 -8.9733,0.81925 -9.55533,0.23723c-0.35782,-0.35782 -0.39349,-27.32925 -0.03737,-27.99564c0.21911,-0.40934 0.51522,-0.43709 4.62055,-0.43709c5.02254,0 4.70208,-0.14437 4.86457,2.19053l0.11267,1.62492l1.01742,-1.27786c1.1935,-1.4998 2.38982,-2.35812 3.9553,-2.83767M220.24237,171.15221c8.821,-1.17991 15.74872,5.04122 15.8427,14.22797c0.04303,4.19875 0.385,4.0606 -10.05923,4.06513c-9.37585,0.0034 -9.06672,-0.06737 -7.32517,1.67418c2.15939,2.15882 6.0943,2.48664 9.46587,0.78868c1.73985,-0.87644 1.62209,-0.9155 3.97851,1.32598c2.43285,2.31452 2.45097,2.39662 0.8487,3.82451c-7.16211,6.37966 -19.63834,4.15969 -23.71196,-4.2197c-4.59111,-9.44323 0.91777,-20.34322 10.96058,-21.68676M249.12294,171.14202c8.82157,-1.06667 15.63548,5.0667 15.70286,14.13455c0.03227,4.3301 0.41784,4.17158 -10.1668,4.17158c-4.5294,0 -8.23501,0.08662 -8.23501,0.1925c0,0.52711 1.43072,2.06371 2.32415,2.49626c2.46116,1.19123 5.50265,1.12159 8.07478,-0.18571c1.8814,-0.9557 1.90065,-0.95004 4.17327,1.33334c2.34623,2.35755 2.36265,2.50193 0.45804,4.06853c-7.3246,6.0241 -19.40394,3.69825 -23.44416,-4.51411c-4.60243,-9.35604 1.09838,-20.4859 11.11288,-21.69695M277.95313,171.13409c8.67833,-1.08083 15.57603,5.13068 15.59132,14.03887c0.00736,4.48637 0.51069,4.27519 -10.2002,4.27519c-4.51864,0 -8.21633,0.08776 -8.21633,0.1942c0,0.10701 0.40312,0.65223 0.89569,1.21161c2.09428,2.37963 6.15545,2.83823 9.58987,1.08309c1.81629,-0.92853 1.79308,-0.93589 4.03173,1.29258c2.43738,2.42606 2.45833,2.58176 0.53956,4.10816c-4.13647,3.29174 -9.84408,4.30293 -14.91078,2.64234c-14.81113,-4.85438 -12.76101,-26.92331 2.67914,-28.84603M311.40386,171.06445c3.26796,-0.70319 7.62467,1.01289 9.61874,3.78941l0.69243,0.96476l1.39902,-1.38316c6.58065,-6.50648 16.68007,-3.77355 19.27032,5.21447c0.54862,1.90405 0.77906,19.94917 0.25987,20.38002c-0.24459,0.20326 -1.55925,0.26044 -4.93818,0.21571l-4.60413,-0.06115l-0.11323,-8.24973c-0.12003,-8.76155 -0.17495,-9.20091 -1.30843,-10.47706c-1.5332,-1.72683 -4.85608,-1.61926 -6.69049,0.21741c-1.24389,1.24502 -1.26767,1.43355 -1.26767,10.0077c0,4.34482 -0.06171,8.06006 -0.13758,8.25709c-0.17778,0.4637 -9.07805,0.54409 -9.53608,0.08606c-0.20043,-0.20043 -0.27176,-2.30943 -0.27233,-8.07988c-0.0017,-8.80232 -0.05096,-9.16354 -1.44261,-10.55576c-2.12768,-2.12712 -5.61306,-1.33957 -7.13267,1.6119l-0.5775,1.12103l-0.11267,8.03062l-0.11323,8.03062h-4.74624h-4.74624l-0.05832,-13.98791c-0.04246,-10.14415 0.01189,-14.07284 0.19703,-14.29591c0.34537,-0.41614 8.89857,-0.45237 9.15448,-0.0385c0.09115,0.14777 0.21175,1.05592 0.26723,2.01841l0.10135,1.75005l0.89116,-1.12725c1.32202,-1.67248 3.44461,-2.89995 5.94597,-3.43895M225.10921,180.08249c-2.42662,-1.42223 -5.74045,-0.6879 -7.05963,1.56377c-0.89739,1.53037 -1.06384,1.47375 4.30349,1.47375c3.54086,0 4.85948,-0.07134 4.85948,-0.26271c0,-0.65053 -1.21614,-2.25451 -2.10334,-2.77482M253.5844,179.91943c-2.35868,-1.20425 -5.41093,-0.43369 -6.80655,1.71834c-0.98967,1.52641 -1.11763,1.48225 4.27915,1.48225c5.20598,0 5.11256,0.02491 4.49316,-1.19803c-0.52258,-1.0327 -0.98231,-1.50093 -1.96576,-2.00256M281.3581,179.53103c-2.77765,-0.69979 -6.45609,1.27446 -6.45609,3.46442c0,0.06851 2.23922,0.12456 4.97554,0.12456h4.97554l-0.34254,-0.84756c-0.47162,-1.16632 -1.92839,-2.43342 -3.15246,-2.74142"/></g></g></svg>