<svg version="1.1" xmlns="http://www.w3.org/2000/svg" xmlns:xlink="http://www.w3.org/1999/xlink" width="364.13479" height="42.54538" viewBox="0,0,364.13479,42.54538"><g transform="translate(-60.43221,-158.98189)"><g data-paper-data="{&quot;isPaintingLayer&quot;:true}" fill="#21ff86" fill-rule="evenodd" stroke="none" stroke-width="1" stroke-linecap="butt" stroke-linejoin="miter" stroke-miterlimit="10" stroke-dasharray="" stroke-dashoffset="0" style="mix-blend-mode: normal"><path d="M75.973,159.66482c6.099,-1.75 14.672,0.115 19.041,4.143c2.308,2.127 2.311,2.113 -1.27,5.886l-3.053,3.217l-2.318,-1.417c-9.305,-5.685 -19.76,2.045 -16.409,12.133c2.492,7.503 13.553,10.039 17.629,4.042c1.568,-2.309 1.449,-2.395 -3.311,-2.395c-5.851,0 -5.501,0.285 -5.501,-4.493c0,-4.93 -1.006,-4.492 10.306,-4.492c10.152,0 9.996,-0.042 10.026,2.715l0.019,1.777l1.321,-2.572c3.574,-6.96 12.278,-9.451 18.024,-5.158l1.219,0.91l0.236,-1.179l0.236,-1.18h4.307h4.306v14.453v14.453h-4.306h-4.307l-0.238,-1.191l-0.238,-1.19l-0.832,0.781c-5.987,5.625 -20.157,-0.968 -20.157,-9.378c0,-1.74 -0.468,-1.334 -1.886,1.637c-6.756,14.159 -28.175,13.424 -35.989,-1.235c-6.23,-11.689 0.229,-26.56 13.145,-30.267M231.172,159.62982c4.325,-1.696 12.5,0.091 16.357,3.575c2.066,1.867 2.028,2.489 -0.328,5.451c-2.956,3.713 -2.717,3.628 -5.767,2.057c-4.357,-2.243 -7.245,-2.266 -8.248,-0.066c-0.83,1.823 0.766,3.131 6.204,5.083c8.331,2.991 10.911,5.986 10.919,12.674c0.014,12.671 -17.019,17.74 -27.214,8.098c-2.48,-2.345 -2.508,-2.568 -0.588,-4.694c0.82,-0.908 1.887,-2.223 2.37,-2.921c1.056,-1.524 2.004,-1.602 3.706,-0.305c4.491,3.426 10.611,3.598 11.433,0.322c0.361,-1.44 -1.773,-3.253 -5.472,-4.649c-9.104,-3.435 -11.966,-6.575 -11.966,-13.13c0,-4.455 2.757,-9.145 6.196,-10.541c0.567,-0.23 1.646,-0.659 2.398,-0.954M255.662,163.25681c0.15,-0.149 2.391,-0.223 4.981,-0.163l4.709,0.109l0.11,4.2l0.111,4.199h2.721c1.901,0 2.731,0.147 2.752,0.488c0.025,0.391 0.071,0.391 0.228,0c0.142,-0.352 1.485,-0.488 4.811,-0.488c4.972,0 5.087,0.05 5.087,2.21v0.975l0.986,-1.172c2.303,-2.737 6.991,-3.595 9.492,-1.736c1.466,1.09 1.475,2.34 0.039,5.789l-1.248,2.998l-2.452,-0.263c-5.425,-0.581 -6.426,1.076 -6.426,10.63c0,3.868 -0.11,7.583 -0.245,8.254l-0.244,1.221h-4.792c-5.844,0 -5.266,1.207 -5.266,-11.011c0,-8.754 -0.065,-9.751 -0.618,-9.539c-0.34,0.131 -1.571,0.238 -2.735,0.238h-2.116v10.167v10.168l-4.981,-0.109l-4.98,-0.109l-0.104,-10.059l-0.105,-10.058h-2.109c-3.411,-0.001 -3.346,0.087 -3.346,-4.534v-4.06h2.734h2.735v-4.037c0,-2.22 0.122,-4.15799 0.271,-4.308M147.557,171.42282c3.898,-1.201 7.759,-0.341 10.327,2.301l1.629,1.676l1.552,-1.349c6.214,-5.403 14.72,-3.802 18.118,3.41c1,2.121 1.014,2.281 1.128,12.61l0.116,10.461l-4.999,-0.11l-4.998,-0.109l-0.196,-8.725l-0.195,-8.724l-1.276,-1.139c-1.445,-1.291 -3.644,-1.538 -5.031,-0.566c-1.83,1.281 -2.091,2.695 -2.091,11.314v8.058l-4.981,-0.109l-4.98,-0.109l-0.196,-8.725l-0.195,-8.724l-1.276,-1.139c-1.445,-1.29 -3.008,-1.469 -4.791,-0.546c-2.094,1.082 -2.331,2.12 -2.337,10.228c-0.007,10.007 0.518,9.101 -5.272,9.101c-4.012,0 -4.834,-0.101 -5.032,-0.618c-0.36,-0.937 -0.272,-27.238 0.093,-27.813c0.236,-0.373 1.512,-0.473 4.974,-0.391l4.657,0.111l0.116,1.583l0.116,1.583l1.62,-1.496c0.892,-0.822 2.421,-1.742 3.4,-2.044M192.109,171.41982c8.939,-2.474 17.177,3.764 17.865,13.525c0.2,2.834 0.158,3.045 -0.801,4.004l-1.012,1.012h-8.059c-8.497,0 -8.869,0.093 -6.745,1.678c2.108,1.574 5.334,1.66 8.209,0.22c1.991,-0.997 2.036,-0.984 4.434,1.284c2.563,2.423 2.584,2.64 0.434,4.402c-6.233,5.107 -15.501,4.602 -20.931,-1.139c-7.824,-8.272 -4.194,-21.998 6.606,-24.986M301.574,171.40282c7.727,-2.168 17.295,3.977 17.515,11.249c0.017,0.577 0.196,0.345 0.539,-0.699c4.761,-14.5 24.683,-14.818 27.381,-0.436l0.276,1.468l0.898,-2.209c6.304,-15.512 27.849,-11.676 27.905,4.968c0.013,4.156 -0.105,4.205 -10.248,4.212c-7.948,0.005 -8.482,0.126 -6.715,1.517c2.348,1.846 5.607,1.81 9.992,-0.11c0.444,-0.194 1.246,0.237 2.609,1.405c2.784,2.384 2.881,2.91 0.856,4.654c-8.463,7.289 -22.198,3.056 -24.845,-7.656c-0.266,-1.074 -0.498,-1.641 -0.516,-1.26c-0.057,1.192 -1.801,1.455 -9.662,1.455c-8.169,0 -8.569,0.119 -6.085,1.802c1.909,1.294 4.022,1.463 6.632,0.528c1.235,-0.442 2.557,-0.905 2.937,-1.029c0.832,-0.27 4.582,3.286 4.582,4.346c0,1.796 -4.957,4.736 -8.902,5.279c-8.113,1.117 -16.207,-4.19 -17.154,-11.246l-0.202,-1.511l-0.916,0.916c-0.901,0.901 -1.042,0.915 -8.974,0.915c-8.497,0 -8.869,0.093 -6.745,1.678c2.108,1.574 5.334,1.66 8.209,0.22c1.991,-0.997 2.036,-0.984 4.434,1.284c2.563,2.423 2.584,2.64 0.434,4.402c-8.962,7.343 -22.854,2.531 -24.918,-8.631c-1.439,-7.788 3.214,-15.415 10.683,-17.511M391.697,171.42282c3.896,-1.2 7.777,-0.338 10.316,2.294l1.608,1.666l2.235,-1.859c5.827,-4.85 14.215,-2.959 17.467,3.937c1,2.122 1.014,2.278 1.129,12.61l0.115,10.461l-4.998,-0.11l-4.999,-0.109l-0.195,-8.725l-0.195,-8.724l-1.276,-1.139c-1.764,-1.575 -3.888,-1.575 -5.652,0l-1.275,1.139l-0.119,8.822l-0.118,8.822h-5.016c-6.058,0 -5.49,0.914 -5.49,-8.834c0,-9.535 -0.518,-11.088 -3.704,-11.088c-3.771,0 -4.497,1.745 -4.504,10.821c-0.007,10.007 0.517,9.101 -5.272,9.101c-4.012,0 -4.834,-0.101 -5.033,-0.618c-0.359,-0.937 -0.271,-27.238 0.093,-27.813c0.237,-0.373 1.512,-0.473 4.975,-0.391l4.656,0.111l0.117,1.583l0.116,1.583l1.62,-1.496c0.891,-0.822 2.421,-1.742 3.399,-2.044M199.434,181.09282c-2.072,-1.888 -6.481,-1.25 -7.75,1.121c-0.361,0.675 -0.125,0.716 4.123,0.716c4.858,0 5.362,-0.255 3.627,-1.837M308.809,181.22982c-1.873,-2.052 -6.436,-1.472 -7.75,0.984c-0.361,0.675 -0.125,0.716 4.123,0.716c4.761,0 5.054,-0.137 3.627,-1.7M337.213,181.50382c-1.92,-2.039 -5.349,-2.046 -7.062,-0.015l-1.051,1.246l2.418,0.116c1.331,0.064 3.417,0.064 4.636,0l2.218,-0.116l-1.159,-1.231M365.29,180.92382c-1.485,-1.299 -5.225,-1.154 -6.79,0.263c-1.628,1.473 -1.049,1.743 3.74,1.743c4.834,0 5.124,-0.191 3.05,-2.006M118.255,181.34782c-3.519,-2.505 -7.936,0.165 -7.936,4.798c0,5.194 6.527,7.452 9.301,3.218c1.586,-2.421 0.909,-6.396 -1.365,-8.016"/></g></g></svg>