<svg version="1.1" xmlns="http://www.w3.org/2000/svg" xmlns:xlink="http://www.w3.org/1999/xlink" width="28.45175" height="29.73499" viewBox="0,0,28.45175,29.73499"><g transform="translate(-225.77412,-165.1325)"><g data-paper-data="{&quot;isPaintingLayer&quot;:true}" fill="#21ff86" fill-rule="nonzero" stroke="none" stroke-width="1" stroke-linecap="butt" stroke-linejoin="miter" stroke-miterlimit="10" stroke-dasharray="" stroke-dashoffset="0" style="mix-blend-mode: normal"><path d=""/><path d="M238.37232,165.27592c8.821,-1.17991 15.74872,5.04122 15.8427,14.22797c0.04303,4.19875 0.385,4.0606 -10.05923,4.06513c-9.37585,0.0034 -9.06672,-0.06737 -7.32517,1.67418c2.15939,2.15882 6.0943,2.48664 9.46587,0.78868c1.73985,-0.87644 1.62209,-0.9155 3.97851,1.32598c2.43285,2.31452 2.45097,2.39662 0.8487,3.82451c-7.16211,6.37966 -19.63834,4.15969 -23.71196,-4.2197c-4.59111,-9.44323 0.91777,-20.34322 10.96058,-21.68676zM243.23916,174.2062c-2.42662,-1.42223 -5.74045,-0.6879 -7.05963,1.56377c-0.89739,1.53037 -1.06384,1.47375 4.30349,1.47375c3.54086,0 4.85948,-0.07134 4.85948,-0.26271c0,-0.65053 -1.21614,-2.25451 -2.10334,-2.77482z"/><path d=""/><path d=""/></g></g></svg>