<svg version="1.1" xmlns="http://www.w3.org/2000/svg" xmlns:xlink="http://www.w3.org/1999/xlink" width="363.61651" height="74.61832" viewBox="0,0,363.61651,74.61832"><g transform="translate(-58.42244,-142.76913)"><g data-paper-data="{&quot;isPaintingLayer&quot;:true}" fill="#21ff86" fill-rule="evenodd" stroke="none" stroke-width="1" stroke-linecap="butt" stroke-linejoin="miter" stroke-miterlimit="10" stroke-dasharray="" stroke-dashoffset="0" style="mix-blend-mode: normal"><path d="M77.525,143.61498c8.555,-2.368 19.788,0.353 27.645,6.698c3.672,2.966 3.648,3.146 -1.207,9.096c-4.806,5.89 -4.815,5.896 -6.987,4.665c-8.865,-5.023 -13.899,-5.674 -17.331,-2.242c-3.519,3.519 -0.865,6.505 8.858,9.967c14.137,5.033 18.988,8.955 21,16.983c6.289,25.093 -27.898,38.816 -48.556,19.491c-3.564,-3.333 -3.534,-3.547 1.244,-8.964c5.884,-6.671 5.175,-6.342 8.601,-3.997c9.399,6.434 19.719,6.771 21.537,0.703c1.079,-3.603 -0.895,-5.248 -11.51,-9.597c-15.704,-6.433 -20.649,-12.236 -19.925,-23.384c0.642,-9.883 6.377,-16.58 16.631,-19.419M119.92,150.13998c0.588,-0.588 15.369,-0.669 16.288,-0.089c0.489,0.309 0.621,1.73 0.723,7.778l0.124,7.401h4.287c5.512,0 5.245,-0.349 5.245,6.833c0,7.749 0.43,7.139 -5.033,7.139h-4.548v17.688c0,13.538 -0.117,17.848 -0.5,18.372c-0.448,0.613 -1.342,0.672 -8.683,0.575l-8.182,-0.108l-0.104,-18.264l-0.104,-18.263h-4.573c-5.63,0 -5.399,0.299 -5.399,-6.986c0,-7.287 -0.232,-6.986 5.403,-6.986h4.577v-7.306c0,-5.15 0.141,-7.447 0.479,-7.784M173.533,164.69998c3.846,-1.18 8.01,-0.571 10.878,1.589c1.758,1.324 1.69,2.142 -0.697,8.318c-2.507,6.488 -2.511,6.492 -5.51,5.873c-5.839,-1.206 -9.464,0.165 -11.924,4.51l-1.13,1.996l-0.102,13.573c-0.055,7.465 -0.194,13.977 -0.307,14.471c-0.242,1.059 -15.849,1.447 -16.877,0.419c-0.632,-0.632 -0.695,-48.27 -0.066,-49.447c0.387,-0.723 0.91,-0.772 8.161,-0.772c8.871,0 8.305,-0.255 8.592,3.869l0.199,2.87l1.797,-2.257c2.108,-2.649 4.221,-4.165 6.986,-5.012M205.334,164.45098c15.58,-2.084 27.816,8.904 27.982,25.13c0.076,7.416 0.68,7.172 -17.767,7.18c-16.56,0.006 -16.014,-0.119 -12.938,2.957c3.814,3.813 10.764,4.392 16.719,1.393c3.073,-1.548 2.865,-1.617 7.027,2.342c4.297,4.088 4.329,4.233 1.499,6.755c-12.65,11.268 -34.686,7.347 -41.881,-7.453c-8.109,-16.679 1.621,-35.931 19.359,-38.304M256.344,164.43298c15.581,-1.884 27.616,8.949 27.735,24.965c0.057,7.648 0.738,7.368 -17.957,7.368c-8,0 -14.545,0.153 -14.545,0.34c0,0.931 2.527,3.645 4.105,4.409c4.347,2.104 9.719,1.981 14.262,-0.328c3.323,-1.688 3.357,-1.678 7.371,2.355c4.144,4.164 4.173,4.419 0.809,7.186c-12.937,10.64 -34.272,6.532 -41.408,-7.973c-8.129,-16.525 1.94,-36.183 19.628,-38.322M307.265,164.41898c15.328,-1.909 27.511,9.062 27.538,24.796c0.013,7.924 0.902,7.551 -18.016,7.551c-7.981,0 -14.512,0.155 -14.512,0.343c0,0.189 0.712,1.152 1.582,2.14c3.699,4.203 10.872,5.013 16.938,1.913c3.208,-1.64 3.167,-1.653 7.121,2.283c4.305,4.285 4.342,4.56 0.953,7.256c-7.306,5.814 -17.387,7.6 -26.336,4.667c-26.16,-8.574 -22.539,-47.553 4.732,-50.949M366.347,164.29598c5.772,-1.242 13.467,1.789 16.989,6.693l1.223,1.704l2.471,-2.443c11.623,-11.492 29.461,-6.665 34.036,9.21c0.969,3.363 1.376,35.235 0.459,35.996c-0.432,0.359 -2.754,0.46 -8.722,0.381l-8.132,-0.108l-0.2,-14.571c-0.212,-15.475 -0.309,-16.251 -2.311,-18.505c-2.708,-3.05 -8.577,-2.86 -11.817,0.384c-2.197,2.199 -2.239,2.532 -2.239,17.676c0,7.674 -0.109,14.236 -0.243,14.584c-0.314,0.819 -16.034,0.961 -16.843,0.152c-0.354,-0.354 -0.48,-4.079 -0.481,-14.271c-0.003,-15.547 -0.09,-16.185 -2.548,-18.644c-3.758,-3.757 -9.914,-2.366 -12.598,2.847l-1.02,1.98l-0.199,14.184l-0.2,14.184h-8.383h-8.383l-0.103,-24.706c-0.075,-17.917 0.021,-24.856 0.348,-25.25c0.61,-0.735 15.717,-0.799 16.169,-0.068c0.161,0.261 0.374,1.865 0.472,3.565l0.179,3.091l1.574,-1.991c2.335,-2.954 6.084,-5.122 10.502,-6.074M213.93,180.22398c-4.286,-2.512 -10.139,-1.215 -12.469,2.762c-1.585,2.703 -1.879,2.603 7.601,2.603c6.254,0 8.583,-0.126 8.583,-0.464c0,-1.149 -2.148,-3.982 -3.715,-4.901M264.224,179.93598c-4.166,-2.127 -9.557,-0.766 -12.022,3.035c-1.748,2.696 -1.974,2.618 7.558,2.618c9.195,0 9.03,0.044 7.936,-2.116c-0.923,-1.824 -1.735,-2.651 -3.472,-3.537M313.279,179.24998c-4.906,-1.236 -11.403,2.251 -11.403,6.119c0,0.121 3.955,0.22 8.788,0.22h8.788l-0.605,-1.497c-0.833,-2.06 -3.406,-4.298 -5.568,-4.842"/></g></g></svg>